<svg width="117" height="123" viewBox="0 0 117 123" fill="none" xmlns="http://www.w3.org/2000/svg">
<g clip-path="url(#clip0_494_742)">
<path d="M5.40137 122.689V108.754H8.07708L14.0275 118.588H12.6098L18.4604 108.754H21.1162L21.1561 122.689H18.121L18.101 113.392H18.6601L13.9876 121.216H12.5299L7.75759 113.392H8.4365V122.689H5.40137Z" fill="#070728"/>
<path d="M29.8439 114.368H36.5731V116.876H29.8439V114.368ZM30.0835 120.101H37.6913V122.689H26.8687V108.754H37.4317V111.342H30.0835V120.101Z" fill="#070728"/>
<path d="M41.7627 122.689V120.599L50.4088 110.207L50.8082 111.382H41.9224V108.754H53.6836V110.844L45.0574 121.236L44.6581 120.061H53.9831V122.689H41.7627Z" fill="#070728"/>
<path d="M73.2942 122.928C72.1894 122.928 71.1642 122.749 70.2191 122.39C69.2872 122.032 68.4753 121.528 67.783 120.877C67.1041 120.227 66.5715 119.464 66.1856 118.588C65.8127 117.712 65.6265 116.757 65.6265 115.721C65.6265 114.686 65.8127 113.731 66.1856 112.855C66.5715 111.979 67.1106 111.216 67.803 110.565C68.4953 109.915 69.3071 109.411 70.2391 109.052C71.171 108.694 72.1825 108.515 73.2742 108.515C74.379 108.515 75.3908 108.694 76.3093 109.052C77.2413 109.411 78.0466 109.915 78.7255 110.565C79.4178 111.216 79.9569 111.979 80.3429 112.855C80.7288 113.717 80.9219 114.673 80.9219 115.721C80.9219 116.757 80.7288 117.719 80.3429 118.608C79.9569 119.484 79.4178 120.247 78.7255 120.897C78.0466 121.534 77.2413 122.032 76.3093 122.39C75.3908 122.749 74.3859 122.928 73.2942 122.928ZM73.2742 120.181C73.8998 120.181 74.4723 120.075 74.9915 119.862C75.524 119.65 75.9899 119.345 76.3892 118.946C76.7886 118.548 77.0946 118.077 77.3077 117.533C77.5339 116.989 77.6472 116.385 77.6472 115.721C77.6472 115.058 77.5339 114.454 77.3077 113.91C77.0946 113.366 76.7886 112.895 76.3892 112.496C76.0033 112.098 75.544 111.793 75.0114 111.581C74.4788 111.368 73.8998 111.262 73.2742 111.262C72.6486 111.262 72.0696 111.368 71.537 111.581C71.0178 111.793 70.5586 112.098 70.1592 112.496C69.7598 112.895 69.4469 113.366 69.2207 113.91C69.0076 114.454 68.9012 115.058 68.9012 115.721C68.9012 116.372 69.0076 116.976 69.2207 117.533C69.4469 118.077 69.7533 118.548 70.1392 118.946C70.5386 119.345 71.0044 119.65 71.537 119.862C72.0696 120.075 72.6486 120.181 73.2742 120.181Z" fill="#070728"/>
<path d="M85.749 122.689V108.754H91.7993C93.0508 108.754 94.129 108.959 95.0341 109.371C95.9392 109.769 96.6381 110.346 97.1308 111.103C97.6234 111.859 97.8696 112.762 97.8696 113.81C97.8696 114.845 97.6234 115.741 97.1308 116.498C96.6381 117.254 95.9392 117.838 95.0341 118.25C94.129 118.648 93.0508 118.847 91.7993 118.847H87.5461L88.9838 117.394V122.689H85.749ZM88.9838 117.752L87.5461 116.219H91.6196C92.618 116.219 93.3634 116.007 93.856 115.582C94.3487 115.157 94.5948 114.567 94.5948 113.81C94.5948 113.04 94.3487 112.443 93.856 112.019C93.3634 111.594 92.618 111.382 91.6196 111.382H87.5461L88.9838 109.849V117.752Z" fill="#070728"/>
<path d="M107.363 122.928C106.245 122.928 105.173 122.782 104.148 122.49C103.123 122.185 102.297 121.793 101.672 121.315L102.77 118.887C103.369 119.311 104.075 119.663 104.887 119.942C105.712 120.207 106.544 120.34 107.383 120.34C108.022 120.34 108.534 120.28 108.92 120.161C109.32 120.028 109.613 119.849 109.799 119.623C109.985 119.398 110.078 119.139 110.078 118.847C110.078 118.475 109.932 118.183 109.639 117.971C109.346 117.745 108.96 117.566 108.481 117.433C108.002 117.288 107.469 117.155 106.884 117.035C106.311 116.902 105.732 116.743 105.146 116.558C104.574 116.372 104.048 116.133 103.569 115.841C103.09 115.549 102.697 115.164 102.391 114.686C102.098 114.208 101.951 113.598 101.951 112.855C101.951 112.058 102.165 111.335 102.59 110.685C103.03 110.021 103.682 109.497 104.547 109.112C105.426 108.714 106.524 108.515 107.842 108.515C108.721 108.515 109.586 108.621 110.438 108.833C111.29 109.032 112.042 109.338 112.694 109.749L111.696 112.198C111.043 111.826 110.391 111.554 109.739 111.382C109.087 111.196 108.448 111.103 107.822 111.103C107.196 111.103 106.684 111.176 106.284 111.322C105.885 111.468 105.599 111.66 105.426 111.899C105.253 112.125 105.166 112.39 105.166 112.695C105.166 113.054 105.313 113.346 105.606 113.571C105.899 113.784 106.284 113.956 106.764 114.089C107.243 114.222 107.769 114.354 108.341 114.487C108.927 114.62 109.506 114.772 110.078 114.945C110.664 115.118 111.197 115.35 111.676 115.642C112.155 115.934 112.541 116.319 112.834 116.796C113.14 117.274 113.293 117.878 113.293 118.608C113.293 119.391 113.074 120.108 112.634 120.758C112.195 121.408 111.536 121.933 110.657 122.331C109.792 122.729 108.694 122.928 107.363 122.928Z" fill="#070728"/>
<path d="M56.3386 1.24422C57.2992 -0.414734 59.701 -0.414743 60.6616 1.24421L116.458 97.5932C117.419 99.252 116.218 101.326 114.296 101.326H2.70383C0.782413 101.326 -0.418488 99.252 0.542226 97.5932L56.3386 1.24422Z" fill="#070728"/>
<path d="M40.5713 34.2159C41.0518 33.3864 42.2527 33.3864 42.7328 34.2159L78.8047 96.5045C79.2849 97.3341 78.6846 98.3708 77.7239 98.3708H5.58045C4.61974 98.3708 4.01927 97.3341 4.49962 96.5045L40.5713 34.2159Z" fill="url(#paint0_linear_494_742)"/>
<path d="M74.267 34.2159C74.7475 33.3864 75.9484 33.3864 76.4286 34.2159L112.5 96.5045C112.981 97.3341 112.38 98.3708 111.42 98.3708H39.2762C38.3156 98.3708 37.715 97.3341 38.1955 96.5045L74.267 34.2159Z" fill="url(#paint1_linear_494_742)"/>
</g>
<defs>
<linearGradient id="paint0_linear_494_742" x1="75.5041" y1="38.7262" x2="75.5041" y2="149.772" gradientUnits="userSpaceOnUse">
<stop stop-color="#3CEAEA" stop-opacity="0.12"/>
<stop offset="1" stop-color="#3CEAEA"/>
</linearGradient>
<linearGradient id="paint1_linear_494_742" x1="75.5038" y1="38.7262" x2="75.5038" y2="149.772" gradientUnits="userSpaceOnUse">
<stop stop-color="#3CEAEA" stop-opacity="0.12"/>
<stop offset="1" stop-color="#3CEAEA"/>
</linearGradient>
<clipPath id="clip0_494_742">
<rect width="117" height="123" fill="white"/>
</clipPath>
</defs>
</svg>
