<svg width="256" height="218" viewBox="0 0 256 218" fill="none" xmlns="http://www.w3.org/2000/svg">
<g clip-path="url(#clip0_494_822)">
<path d="M123.27 2.66545C125.372 -0.88847 130.628 -0.88849 132.729 2.66543L254.813 209.07C256.916 212.624 254.289 217.067 250.084 217.067H5.91579C1.71165 217.067 -0.915958 212.624 1.18612 209.07L123.27 2.66545Z" fill="#070728"/>
<path d="M88.771 73.2997C89.8223 71.5225 92.4499 71.5225 93.5005 73.2997L172.427 206.738C173.478 208.515 172.164 210.736 170.062 210.736H12.2099C10.1078 210.736 8.79397 208.515 9.845 206.738L88.771 73.2997Z" fill="url(#paint0_linear_494_822)"/>
<path d="M162.499 73.2997C163.551 71.5225 166.178 71.5225 167.229 73.2997L246.156 206.738C247.206 208.515 245.893 210.736 243.791 210.736H85.9384C83.8365 210.736 82.5223 208.515 83.5736 206.738L162.499 73.2997Z" fill="url(#paint1_linear_494_822)"/>
</g>
<defs>
<linearGradient id="paint0_linear_494_822" x1="165.205" y1="82.9619" x2="165.205" y2="320.852" gradientUnits="userSpaceOnUse">
<stop stop-color="#3CEAEA" stop-opacity="0.12"/>
<stop offset="1" stop-color="#3CEAEA"/>
</linearGradient>
<linearGradient id="paint1_linear_494_822" x1="165.206" y1="82.9619" x2="165.206" y2="320.852" gradientUnits="userSpaceOnUse">
<stop stop-color="#3CEAEA" stop-opacity="0.12"/>
<stop offset="1" stop-color="#3CEAEA"/>
</linearGradient>
<clipPath id="clip0_494_822">
<rect width="256" height="218" fill="white"/>
</clipPath>
</defs>
</svg>
