<svg width="264" height="40" viewBox="0 0 264 40" fill="none" xmlns="http://www.w3.org/2000/svg">
<path d="M176 26.8011V15.1989H178.158L182.956 23.3867H181.813L186.53 15.1989H188.672L188.704 26.8011H186.257L186.24 19.0608H186.691L182.924 25.5746H181.748L177.9 19.0608H178.447V26.8011H176ZM195.709 19.8729H201.136V21.9613H195.709V19.8729ZM195.903 24.6464H202.037V26.8011H193.31V15.1989H201.828V17.3536H195.903V24.6464ZM205.32 26.8011V25.0608L212.292 16.4088L212.614 17.3867H205.449V15.1989H214.933V16.9392L207.977 25.5912L207.655 24.6133H215.175V26.8011H205.32ZM230.746 27C229.855 27 229.029 26.8508 228.266 26.5525C227.515 26.2541 226.86 25.8343 226.302 25.2928C225.755 24.7514 225.325 24.116 225.014 23.3867C224.713 22.6575 224.563 21.8619 224.563 21C224.563 20.1381 224.713 19.3425 225.014 18.6133C225.325 17.884 225.76 17.2486 226.318 16.7072C226.876 16.1657 227.531 15.7459 228.283 15.4475C229.034 15.1492 229.85 15 230.73 15C231.621 15 232.437 15.1492 233.177 15.4475C233.929 15.7459 234.578 16.1657 235.126 16.7072C235.684 17.2486 236.119 17.884 236.43 18.6133C236.741 19.3315 236.897 20.1271 236.897 21C236.897 21.8619 236.741 22.663 236.43 23.4033C236.119 24.1326 235.684 24.7679 235.126 25.3094C234.578 25.8398 233.929 26.2541 233.177 26.5525C232.437 26.8508 231.626 27 230.746 27ZM230.73 24.7127C231.234 24.7127 231.696 24.6243 232.115 24.4475C232.544 24.2707 232.92 24.0166 233.242 23.6851C233.564 23.3536 233.811 22.9613 233.982 22.5083C234.165 22.0553 234.256 21.5525 234.256 21C234.256 20.4475 234.165 19.9447 233.982 19.4917C233.811 19.0387 233.564 18.6464 233.242 18.3149C232.931 17.9834 232.56 17.7293 232.131 17.5525C231.701 17.3757 231.234 17.2873 230.73 17.2873C230.226 17.2873 229.759 17.3757 229.329 17.5525C228.911 17.7293 228.54 17.9834 228.218 18.3149C227.896 18.6464 227.644 19.0387 227.461 19.4917C227.29 19.9447 227.204 20.4475 227.204 21C227.204 21.5414 227.29 22.0442 227.461 22.5083C227.644 22.9613 227.891 23.3536 228.202 23.6851C228.524 24.0166 228.9 24.2707 229.329 24.4475C229.759 24.6243 230.226 24.7127 230.73 24.7127ZM240.789 26.8011V15.1989H245.668C246.677 15.1989 247.547 15.3702 248.277 15.7127C249.006 16.0442 249.57 16.5249 249.967 17.1547C250.364 17.7845 250.563 18.5359 250.563 19.4088C250.563 20.2707 250.364 21.0166 249.967 21.6464C249.57 22.2762 249.006 22.7624 248.277 23.105C247.547 23.4365 246.677 23.6022 245.668 23.6022H242.238L243.398 22.3923V26.8011H240.789ZM243.398 22.6906L242.238 21.4144H245.523C246.328 21.4144 246.929 21.2376 247.327 20.884C247.724 20.5304 247.922 20.0387 247.922 19.4088C247.922 18.7679 247.724 18.2707 247.327 17.9171C246.929 17.5635 246.328 17.3867 245.523 17.3867H242.238L243.398 16.1105V22.6906ZM258.217 27C257.317 27 256.451 26.8785 255.626 26.6354C254.798 26.3813 254.134 26.0552 253.628 25.6575L254.514 23.6354C254.997 23.9889 255.566 24.2818 256.222 24.5138C256.886 24.7348 257.558 24.8453 258.235 24.8453C258.748 24.8453 259.163 24.7956 259.473 24.6961C259.795 24.5856 260.031 24.4365 260.182 24.2486C260.333 24.0608 260.409 23.8453 260.409 23.6022C260.409 23.2928 260.29 23.0497 260.054 22.8729C259.817 22.6851 259.505 22.5359 259.121 22.4254C258.733 22.3039 258.303 22.1934 257.832 22.0939C257.37 21.9834 256.904 21.8508 256.431 21.6961C255.968 21.5414 255.546 21.3426 255.158 21.0994C254.773 20.8563 254.456 20.5359 254.21 20.1381C253.973 19.7403 253.855 19.232 253.855 18.6133C253.855 17.9503 254.026 17.3481 254.371 16.8066C254.723 16.2542 255.249 15.8177 255.948 15.4972C256.655 15.1657 257.541 15 258.605 15C259.312 15 260.011 15.0884 260.698 15.2652C261.385 15.4309 261.991 15.6851 262.517 16.0276L261.712 18.0663C261.186 17.7569 260.66 17.5304 260.134 17.3867C259.609 17.2321 259.093 17.1547 258.587 17.1547C258.084 17.1547 257.671 17.2155 257.349 17.337C257.027 17.4586 256.796 17.6188 256.655 17.8177C256.517 18.0055 256.446 18.2265 256.446 18.4807C256.446 18.779 256.564 19.0221 256.801 19.2099C257.037 19.3868 257.349 19.5304 257.734 19.6409C258.122 19.7514 258.544 19.8619 259.007 19.9724C259.48 20.0829 259.946 20.2099 260.409 20.3536C260.879 20.4972 261.309 20.6906 261.697 20.9337C262.082 21.1768 262.394 21.4972 262.63 21.895C262.877 22.2928 263 22.7956 263 23.4033C263 24.0552 262.824 24.6519 262.469 25.1934C262.114 25.7348 261.584 26.1713 260.874 26.5028C260.177 26.8343 259.292 27 258.217 27Z" fill="#070728"/>
<path d="M0 26.8011V15.1989H4.84697C5.84943 15.1989 6.71325 15.3702 7.43842 15.7127C8.16359 16.0442 8.72347 16.5249 9.11806 17.1547C9.51266 17.7845 9.70994 18.5359 9.70994 19.4088C9.70994 20.2707 9.51266 21.0166 9.11806 21.6464C8.72347 22.2762 8.16359 22.7624 7.43842 23.105C6.71325 23.4365 5.84943 23.6022 4.84697 23.6022H1.43969L2.59145 22.3923V26.8011H0ZM2.59145 22.6906L1.43969 21.4144H4.703C5.50283 21.4144 6.10003 21.2376 6.49462 20.884C6.88921 20.5304 7.0865 20.0387 7.0865 19.4088C7.0865 18.7679 6.88921 18.2707 6.49462 17.9171C6.10003 17.5635 5.50283 17.3867 4.703 17.3867H1.43969L2.59145 16.1105V22.6906ZM18.2749 27C17.3897 27 16.5686 26.8508 15.8114 26.5525C15.0649 26.2541 14.4144 25.8343 13.8598 25.2928C13.3159 24.7514 12.8893 24.116 12.5801 23.3867C12.2815 22.6575 12.1322 21.8619 12.1322 21C12.1322 20.1381 12.2815 19.3425 12.5801 18.6133C12.8893 17.884 13.3212 17.2486 13.8758 16.7072C14.4304 16.1657 15.0809 15.7459 15.8274 15.4475C16.5739 15.1492 17.3844 15 18.2589 15C19.144 15 19.9545 15.1492 20.6904 15.4475C21.4369 15.7459 22.0821 16.1657 22.6259 16.7072C23.1805 17.2486 23.6124 17.884 23.9217 18.6133C24.2309 19.3315 24.3856 20.1271 24.3856 21C24.3856 21.8619 24.2309 22.663 23.9217 23.4033C23.6124 24.1326 23.1805 24.7679 22.6259 25.3094C22.0821 25.8398 21.4369 26.2541 20.6904 26.5525C19.9545 26.8508 19.1494 27 18.2749 27ZM18.2589 24.7127C18.7601 24.7127 19.2187 24.6243 19.6346 24.4475C20.0612 24.2707 20.4344 24.0166 20.7543 23.6851C21.0743 23.3536 21.3195 22.9613 21.4902 22.5083C21.6715 22.0553 21.7621 21.5525 21.7621 21C21.7621 20.4475 21.6715 19.9447 21.4902 19.4917C21.3195 19.0387 21.0743 18.6464 20.7543 18.3149C20.4451 17.9834 20.0772 17.7293 19.6506 17.5525C19.224 17.3757 18.7601 17.2873 18.2589 17.2873C17.7577 17.2873 17.2938 17.3757 16.8672 17.5525C16.4513 17.7293 16.0833 17.9834 15.7634 18.3149C15.4435 18.6464 15.1929 19.0387 15.0116 19.4917C14.8409 19.9447 14.7556 20.4475 14.7556 21C14.7556 21.5414 14.8409 22.0442 15.0116 22.5083C15.1929 22.9613 15.4381 23.3536 15.7474 23.6851C16.0673 24.0166 16.4406 24.2707 16.8672 24.4475C17.2938 24.6243 17.7577 24.7127 18.2589 24.7127ZM29.7812 26.8011L26.1177 15.1989H28.8051L31.9887 25.4751H30.6447L33.972 15.1989H36.3718L39.5711 25.4751H38.2754L41.5387 15.1989H44.0182L40.3549 26.8011H37.5715L34.7401 17.7845H35.476L32.5643 26.8011H29.7812ZM48.9681 19.8729H54.359V21.9613H48.9681V19.8729ZM49.1601 24.6464H55.2548V26.8011H46.5846V15.1989H55.0468V17.3536H49.1601V24.6464ZM58.4363 26.8011V15.1989H63.2833C64.2859 15.1989 65.1497 15.3702 65.8748 15.7127C66.5999 16.0442 67.1597 16.5249 67.5544 17.1547C67.9491 17.7845 68.1463 18.5359 68.1463 19.4088C68.1463 20.2707 67.9491 21.0166 67.5544 21.6464C67.1597 22.2652 66.5999 22.7403 65.8748 23.0718C65.1497 23.4033 64.2859 23.5691 63.2833 23.5691H59.876L61.0278 22.3923V26.8011H58.4363ZM65.5548 26.8011L62.7554 22.5912H65.5228L68.3542 26.8011H65.5548ZM61.0278 22.6906L59.876 21.4309H63.1393C63.9392 21.4309 64.5363 21.2541 64.931 20.9006C65.3256 20.5359 65.5228 20.0387 65.5228 19.4088C65.5228 18.7679 65.3256 18.2707 64.931 17.9171C64.5363 17.5635 63.9392 17.3867 63.1393 17.3867H59.876L61.0278 16.1105V22.6906ZM73.7026 19.8729H79.0935V21.9613H73.7026V19.8729ZM73.8946 24.6464H79.9893V26.8011H71.3191V15.1989H79.7813V17.3536H73.8946V24.6464ZM83.1711 26.8011V15.1989H88.258C89.4738 15.1989 90.5455 15.442 91.4733 15.9282C92.4011 16.4033 93.1262 17.0718 93.6489 17.9337C94.1715 18.7956 94.4327 19.8177 94.4327 21C94.4327 22.1713 94.1715 23.1934 93.6489 24.0663C93.1262 24.9282 92.4011 25.6022 91.4733 26.0884C90.5455 26.5636 89.4738 26.8011 88.258 26.8011H83.1711ZM85.7625 24.5967H88.13C88.8766 24.5967 89.5217 24.453 90.0656 24.1657C90.6203 23.8674 91.0467 23.4475 91.3454 22.9061C91.6545 22.3646 91.8093 21.7293 91.8093 21C91.8093 20.2597 91.6545 19.6243 91.3454 19.0939C91.0467 18.5525 90.6203 18.1381 90.0656 17.8508C89.5217 17.5525 88.8766 17.4033 88.13 17.4033H85.7625V24.5967ZM103.157 26.8011V15.1989H108.628C110.035 15.1989 111.091 15.4751 111.795 16.0276C112.51 16.5801 112.867 17.3094 112.867 18.2155C112.867 18.8232 112.723 19.3536 112.435 19.8066C112.147 20.2486 111.752 20.5912 111.251 20.8343C110.75 21.0774 110.174 21.1989 109.523 21.1989L109.827 20.5193C110.531 20.5193 111.155 20.6409 111.699 20.884C112.243 21.116 112.664 21.4641 112.963 21.9282C113.272 22.3923 113.427 22.9613 113.427 23.6354C113.427 24.6298 113.048 25.4088 112.291 25.9724C111.534 26.5248 110.419 26.8011 108.948 26.8011H103.157ZM105.732 24.779H108.756C109.428 24.779 109.934 24.6685 110.275 24.4475C110.627 24.2155 110.803 23.8508 110.803 23.3536C110.803 22.8674 110.627 22.5083 110.275 22.2762C109.934 22.0331 109.428 21.9116 108.756 21.9116H105.54V19.9558H108.308C108.937 19.9558 109.417 19.8453 109.747 19.6243C110.089 19.3923 110.259 19.0442 110.259 18.5801C110.259 18.1271 110.089 17.79 109.747 17.5691C109.417 17.337 108.937 17.221 108.308 17.221H105.732V24.779ZM119.057 26.8011V22.0608L119.649 23.6851L114.722 15.1989H117.474L121.249 21.7127H119.665L123.457 15.1989H126L121.073 23.6851L121.649 22.0608V26.8011H119.057Z" fill="#070728"/>
<path d="M150.147 0.478896C150.526 -0.15963 151.474 -0.159633 151.853 0.478893L173.866 37.5632C174.246 38.2018 173.772 39 173.014 39H128.986C128.228 39 127.754 38.2018 128.133 37.5632L150.147 0.478896Z" fill="#070728"/>
<path d="M143.927 13.1694C144.116 12.8501 144.59 12.8501 144.78 13.1694L159.011 37.1441C159.201 37.4633 158.964 37.8623 158.585 37.8623H130.122C129.743 37.8623 129.506 37.4633 129.695 37.1441L143.927 13.1694Z" fill="url(#paint0_linear_524_143)"/>
<path d="M157.221 13.1694C157.41 12.8501 157.884 12.8501 158.073 13.1694L172.305 37.1441C172.495 37.4633 172.258 37.8623 171.879 37.8623H143.415C143.036 37.8623 142.8 37.4633 142.989 37.1441L157.221 13.1694Z" fill="url(#paint1_linear_524_143)"/>
<defs>
<linearGradient id="paint0_linear_524_143" x1="157.709" y1="14.9054" x2="157.709" y2="57.6468" gradientUnits="userSpaceOnUse">
<stop stop-color="#3CEAEA" stop-opacity="0.12"/>
<stop offset="1" stop-color="#3CEAEA"/>
</linearGradient>
<linearGradient id="paint1_linear_524_143" x1="157.709" y1="14.9054" x2="157.709" y2="57.6468" gradientUnits="userSpaceOnUse">
<stop stop-color="#3CEAEA" stop-opacity="0.12"/>
<stop offset="1" stop-color="#3CEAEA"/>
</linearGradient>
</defs>
</svg>
