<svg width="256" height="218" viewBox="0 0 256 218" fill="none" xmlns="http://www.w3.org/2000/svg">
<g clip-path="url(#clip0_494_864)">
<path d="M123.27 2.669C125.372 -0.889654 130.628 -0.889674 132.729 2.66899L254.813 209.349C256.916 212.908 254.289 217.356 250.084 217.356H5.91579C1.71165 217.356 -0.915958 212.908 1.18612 209.349L123.27 2.669Z" fill="#FAFAFA"/>
<path d="M88.771 73.3973C89.8223 71.6177 92.4499 71.6177 93.5005 73.3973L172.427 207.014C173.478 208.793 172.164 211.017 170.062 211.017H12.2099C10.1078 211.017 8.79397 208.793 9.845 207.014L88.771 73.3973Z" fill="url(#paint0_linear_494_864)"/>
<path d="M162.499 73.3973C163.551 71.6177 166.178 71.6177 167.229 73.3973L246.155 207.014C247.206 208.793 245.893 211.017 243.791 211.017H85.9384C83.8365 211.017 82.5223 208.793 83.5736 207.014L162.499 73.3973Z" fill="url(#paint1_linear_494_864)"/>
</g>
<defs>
<linearGradient id="paint0_linear_494_864" x1="90.9155" y1="112.901" x2="90.9155" y2="239.915" gradientUnits="userSpaceOnUse">
<stop stop-color="#070728" stop-opacity="0.85"/>
<stop offset="1" stop-color="#3CEAEA" stop-opacity="0.6"/>
</linearGradient>
<linearGradient id="paint1_linear_494_864" x1="165.084" y1="115.253" x2="165.084" y2="238.739" gradientUnits="userSpaceOnUse">
<stop stop-color="#070728" stop-opacity="0.85"/>
<stop offset="1" stop-color="#3CEAEA" stop-opacity="0.6"/>
</linearGradient>
<clipPath id="clip0_494_864">
<rect width="256" height="218" fill="white"/>
</clipPath>
</defs>
</svg>
