<svg width="264" height="40" viewBox="0 0 264 40" fill="none" xmlns="http://www.w3.org/2000/svg">
<path d="M177 26.8011V15.1989H179.158L183.956 23.3867H182.813L187.53 15.1989H189.672L189.704 26.8011H187.257L187.24 19.0608H187.691L183.924 25.5746H182.748L178.9 19.0608H179.447V26.8011H177ZM196.709 19.8729H202.136V21.9613H196.709V19.8729ZM196.903 24.6464H203.037V26.8011H194.31V15.1989H202.828V17.3536H196.903V24.6464ZM206.32 26.8011V25.0608L213.292 16.4088L213.614 17.3867H206.449V15.1989H215.933V16.9392L208.977 25.5912L208.655 24.6133H216.175V26.8011H206.32ZM231.746 27C230.855 27 230.029 26.8508 229.266 26.5525C228.515 26.2541 227.86 25.8343 227.302 25.2928C226.755 24.7514 226.325 24.116 226.014 23.3867C225.713 22.6575 225.563 21.8619 225.563 21C225.563 20.1381 225.713 19.3425 226.014 18.6133C226.325 17.884 226.76 17.2486 227.318 16.7072C227.876 16.1657 228.531 15.7459 229.283 15.4475C230.034 15.1492 230.85 15 231.73 15C232.621 15 233.437 15.1492 234.177 15.4475C234.929 15.7459 235.578 16.1657 236.126 16.7072C236.684 17.2486 237.119 17.884 237.43 18.6133C237.741 19.3315 237.897 20.1271 237.897 21C237.897 21.8619 237.741 22.663 237.43 23.4033C237.119 24.1326 236.684 24.7679 236.126 25.3094C235.578 25.8398 234.929 26.2541 234.177 26.5525C233.437 26.8508 232.626 27 231.746 27ZM231.73 24.7127C232.234 24.7127 232.696 24.6243 233.115 24.4475C233.544 24.2707 233.92 24.0166 234.242 23.6851C234.564 23.3536 234.811 22.9613 234.982 22.5083C235.165 22.0553 235.256 21.5525 235.256 21C235.256 20.4475 235.165 19.9447 234.982 19.4917C234.811 19.0387 234.564 18.6464 234.242 18.3149C233.931 17.9834 233.56 17.7293 233.131 17.5525C232.701 17.3757 232.234 17.2873 231.73 17.2873C231.226 17.2873 230.759 17.3757 230.329 17.5525C229.911 17.7293 229.54 17.9834 229.218 18.3149C228.896 18.6464 228.644 19.0387 228.461 19.4917C228.29 19.9447 228.204 20.4475 228.204 21C228.204 21.5414 228.29 22.0442 228.461 22.5083C228.644 22.9613 228.891 23.3536 229.202 23.6851C229.524 24.0166 229.9 24.2707 230.329 24.4475C230.759 24.6243 231.226 24.7127 231.73 24.7127ZM241.789 26.8011V15.1989H246.668C247.677 15.1989 248.547 15.3702 249.277 15.7127C250.006 16.0442 250.57 16.5249 250.967 17.1547C251.364 17.7845 251.563 18.5359 251.563 19.4088C251.563 20.2707 251.364 21.0166 250.967 21.6464C250.57 22.2762 250.006 22.7624 249.277 23.105C248.547 23.4365 247.677 23.6022 246.668 23.6022H243.238L244.398 22.3923V26.8011H241.789ZM244.398 22.6906L243.238 21.4144H246.523C247.328 21.4144 247.929 21.2376 248.327 20.884C248.724 20.5304 248.922 20.0387 248.922 19.4088C248.922 18.7679 248.724 18.2707 248.327 17.9171C247.929 17.5635 247.328 17.3867 246.523 17.3867H243.238L244.398 16.1105V22.6906ZM259.217 27C258.317 27 257.451 26.8785 256.626 26.6354C255.798 26.3813 255.134 26.0552 254.628 25.6575L255.514 23.6354C255.997 23.9889 256.566 24.2818 257.222 24.5138C257.886 24.7348 258.558 24.8453 259.235 24.8453C259.748 24.8453 260.163 24.7956 260.473 24.6961C260.795 24.5856 261.031 24.4365 261.182 24.2486C261.333 24.0608 261.409 23.8453 261.409 23.6022C261.409 23.2928 261.29 23.0497 261.054 22.8729C260.817 22.6851 260.505 22.5359 260.121 22.4254C259.733 22.3039 259.303 22.1934 258.832 22.0939C258.37 21.9834 257.904 21.8508 257.431 21.6961C256.968 21.5414 256.546 21.3426 256.158 21.0994C255.773 20.8563 255.456 20.5359 255.21 20.1381C254.973 19.7403 254.855 19.232 254.855 18.6133C254.855 17.9503 255.026 17.3481 255.371 16.8066C255.723 16.2542 256.249 15.8177 256.948 15.4972C257.655 15.1657 258.541 15 259.605 15C260.312 15 261.011 15.0884 261.698 15.2652C262.385 15.4309 262.991 15.6851 263.517 16.0276L262.712 18.0663C262.186 17.7569 261.66 17.5304 261.134 17.3867C260.609 17.2321 260.093 17.1547 259.587 17.1547C259.084 17.1547 258.671 17.2155 258.349 17.337C258.027 17.4586 257.796 17.6188 257.655 17.8177C257.517 18.0055 257.446 18.2265 257.446 18.4807C257.446 18.779 257.564 19.0221 257.801 19.2099C258.037 19.3868 258.349 19.5304 258.734 19.6409C259.122 19.7514 259.544 19.8619 260.007 19.9724C260.48 20.0829 260.946 20.2099 261.409 20.3536C261.879 20.4972 262.309 20.6906 262.697 20.9337C263.082 21.1768 263.394 21.4972 263.63 21.895C263.877 22.2928 264 22.7956 264 23.4033C264 24.0552 263.824 24.6519 263.469 25.1934C263.114 25.7348 262.584 26.1713 261.874 26.5028C261.177 26.8343 260.292 27 259.217 27Z" fill="#FAFAFA"/>
<path d="M1 26.8011V15.1989H5.84697C6.84943 15.1989 7.71325 15.3702 8.43842 15.7127C9.16359 16.0442 9.72347 16.5249 10.1181 17.1547C10.5127 17.7845 10.7099 18.5359 10.7099 19.4088C10.7099 20.2707 10.5127 21.0166 10.1181 21.6464C9.72347 22.2762 9.16359 22.7624 8.43842 23.105C7.71325 23.4365 6.84943 23.6022 5.84697 23.6022H2.43969L3.59145 22.3923V26.8011H1ZM3.59145 22.6906L2.43969 21.4144H5.703C6.50283 21.4144 7.10003 21.2376 7.49462 20.884C7.88921 20.5304 8.0865 20.0387 8.0865 19.4088C8.0865 18.7679 7.88921 18.2707 7.49462 17.9171C7.10003 17.5635 6.50283 17.3867 5.703 17.3867H2.43969L3.59145 16.1105V22.6906ZM19.2749 27C18.3897 27 17.5686 26.8508 16.8114 26.5525C16.0649 26.2541 15.4144 25.8343 14.8598 25.2928C14.3159 24.7514 13.8893 24.116 13.5801 23.3867C13.2815 22.6575 13.1322 21.8619 13.1322 21C13.1322 20.1381 13.2815 19.3425 13.5801 18.6133C13.8893 17.884 14.3212 17.2486 14.8758 16.7072C15.4304 16.1657 16.0809 15.7459 16.8274 15.4475C17.5739 15.1492 18.3844 15 19.2589 15C20.144 15 20.9545 15.1492 21.6904 15.4475C22.4369 15.7459 23.0821 16.1657 23.6259 16.7072C24.1805 17.2486 24.6124 17.884 24.9217 18.6133C25.2309 19.3315 25.3856 20.1271 25.3856 21C25.3856 21.8619 25.2309 22.663 24.9217 23.4033C24.6124 24.1326 24.1805 24.7679 23.6259 25.3094C23.0821 25.8398 22.4369 26.2541 21.6904 26.5525C20.9545 26.8508 20.1494 27 19.2749 27ZM19.2589 24.7127C19.7601 24.7127 20.2187 24.6243 20.6346 24.4475C21.0612 24.2707 21.4344 24.0166 21.7543 23.6851C22.0743 23.3536 22.3195 22.9613 22.4902 22.5083C22.6715 22.0553 22.7621 21.5525 22.7621 21C22.7621 20.4475 22.6715 19.9447 22.4902 19.4917C22.3195 19.0387 22.0743 18.6464 21.7543 18.3149C21.4451 17.9834 21.0772 17.7293 20.6506 17.5525C20.224 17.3757 19.7601 17.2873 19.2589 17.2873C18.7577 17.2873 18.2938 17.3757 17.8672 17.5525C17.4513 17.7293 17.0833 17.9834 16.7634 18.3149C16.4435 18.6464 16.1929 19.0387 16.0116 19.4917C15.8409 19.9447 15.7556 20.4475 15.7556 21C15.7556 21.5414 15.8409 22.0442 16.0116 22.5083C16.1929 22.9613 16.4381 23.3536 16.7474 23.6851C17.0673 24.0166 17.4406 24.2707 17.8672 24.4475C18.2938 24.6243 18.7577 24.7127 19.2589 24.7127ZM30.7812 26.8011L27.1177 15.1989H29.8051L32.9887 25.4751H31.6447L34.972 15.1989H37.3718L40.5711 25.4751H39.2754L42.5387 15.1989H45.0182L41.3549 26.8011H38.5715L35.7401 17.7845H36.476L33.5643 26.8011H30.7812ZM49.9681 19.8729H55.359V21.9613H49.9681V19.8729ZM50.1601 24.6464H56.2548V26.8011H47.5846V15.1989H56.0468V17.3536H50.1601V24.6464ZM59.4363 26.8011V15.1989H64.2833C65.2859 15.1989 66.1497 15.3702 66.8748 15.7127C67.5999 16.0442 68.1597 16.5249 68.5544 17.1547C68.9491 17.7845 69.1463 18.5359 69.1463 19.4088C69.1463 20.2707 68.9491 21.0166 68.5544 21.6464C68.1597 22.2652 67.5999 22.7403 66.8748 23.0718C66.1497 23.4033 65.2859 23.5691 64.2833 23.5691H60.876L62.0278 22.3923V26.8011H59.4363ZM66.5548 26.8011L63.7554 22.5912H66.5228L69.3542 26.8011H66.5548ZM62.0278 22.6906L60.876 21.4309H64.1393C64.9392 21.4309 65.5363 21.2541 65.931 20.9006C66.3256 20.5359 66.5228 20.0387 66.5228 19.4088C66.5228 18.7679 66.3256 18.2707 65.931 17.9171C65.5363 17.5635 64.9392 17.3867 64.1393 17.3867H60.876L62.0278 16.1105V22.6906ZM74.7026 19.8729H80.0935V21.9613H74.7026V19.8729ZM74.8946 24.6464H80.9893V26.8011H72.3191V15.1989H80.7813V17.3536H74.8946V24.6464ZM84.1711 26.8011V15.1989H89.258C90.4738 15.1989 91.5455 15.442 92.4733 15.9282C93.4011 16.4033 94.1262 17.0718 94.6489 17.9337C95.1715 18.7956 95.4327 19.8177 95.4327 21C95.4327 22.1713 95.1715 23.1934 94.6489 24.0663C94.1262 24.9282 93.4011 25.6022 92.4733 26.0884C91.5455 26.5636 90.4738 26.8011 89.258 26.8011H84.1711ZM86.7625 24.5967H89.13C89.8766 24.5967 90.5217 24.453 91.0656 24.1657C91.6203 23.8674 92.0467 23.4475 92.3454 22.9061C92.6545 22.3646 92.8093 21.7293 92.8093 21C92.8093 20.2597 92.6545 19.6243 92.3454 19.0939C92.0467 18.5525 91.6203 18.1381 91.0656 17.8508C90.5217 17.5525 89.8766 17.4033 89.13 17.4033H86.7625V24.5967ZM104.157 26.8011V15.1989H109.628C111.035 15.1989 112.091 15.4751 112.795 16.0276C113.51 16.5801 113.867 17.3094 113.867 18.2155C113.867 18.8232 113.723 19.3536 113.435 19.8066C113.147 20.2486 112.752 20.5912 112.251 20.8343C111.75 21.0774 111.174 21.1989 110.523 21.1989L110.827 20.5193C111.531 20.5193 112.155 20.6409 112.699 20.884C113.243 21.116 113.664 21.4641 113.963 21.9282C114.272 22.3923 114.427 22.9613 114.427 23.6354C114.427 24.6298 114.048 25.4088 113.291 25.9724C112.534 26.5248 111.419 26.8011 109.948 26.8011H104.157ZM106.732 24.779H109.756C110.428 24.779 110.934 24.6685 111.275 24.4475C111.627 24.2155 111.803 23.8508 111.803 23.3536C111.803 22.8674 111.627 22.5083 111.275 22.2762C110.934 22.0331 110.428 21.9116 109.756 21.9116H106.54V19.9558H109.308C109.937 19.9558 110.417 19.8453 110.747 19.6243C111.089 19.3923 111.259 19.0442 111.259 18.5801C111.259 18.1271 111.089 17.79 110.747 17.5691C110.417 17.337 109.937 17.221 109.308 17.221H106.732V24.779ZM120.057 26.8011V22.0608L120.649 23.6851L115.722 15.1989H118.474L122.249 21.7127H120.665L124.457 15.1989H127L122.073 23.6851L122.649 22.0608V26.8011H120.057Z" fill="#FAFAFA"/>
<g clip-path="url(#clip0_524_151)">
<path d="M151.15 1.47748C151.528 0.840842 152.472 0.840838 152.85 1.47748L174.787 38.4524C175.164 39.089 174.692 39.8848 173.937 39.8848H130.063C129.307 39.8848 128.835 39.089 129.213 38.4524L151.15 1.47748Z" fill="#FAFAFA"/>
<path d="M144.951 14.1306C145.14 13.8123 145.612 13.8123 145.801 14.1306L159.983 38.0345C160.172 38.3528 159.936 38.7507 159.558 38.7507H131.194C130.816 38.7507 130.58 38.3528 130.769 38.0345L144.951 14.1306Z" fill="url(#paint0_linear_524_151)"/>
<path d="M158.199 14.1306C158.388 13.8123 158.86 13.8123 159.049 14.1306L173.231 38.0345C173.42 38.3528 173.184 38.7507 172.806 38.7507H144.442C144.064 38.7507 143.828 38.3528 144.017 38.0345L158.199 14.1306Z" fill="url(#paint1_linear_524_151)"/>
</g>
<defs>
<linearGradient id="paint0_linear_524_151" x1="145.336" y1="21.1978" x2="145.336" y2="43.9204" gradientUnits="userSpaceOnUse">
<stop stop-color="#070728" stop-opacity="0.85"/>
<stop offset="1" stop-color="#3CEAEA" stop-opacity="0.6"/>
</linearGradient>
<linearGradient id="paint1_linear_524_151" x1="158.664" y1="21.6186" x2="158.664" y2="43.7101" gradientUnits="userSpaceOnUse">
<stop stop-color="#070728" stop-opacity="0.85"/>
<stop offset="1" stop-color="#3CEAEA" stop-opacity="0.6"/>
</linearGradient>
<clipPath id="clip0_524_151">
<rect width="46" height="39" fill="white" transform="translate(129 1)"/>
</clipPath>
</defs>
</svg>
