<svg width="117" height="123" viewBox="0 0 117 123" fill="none" xmlns="http://www.w3.org/2000/svg">
<g clip-path="url(#clip0_494_786)">
<path d="M5.40137 122.694V108.982H8.07708L14.0275 118.659H12.6098L18.4604 108.982H21.1162L21.1561 122.694H18.121L18.101 113.546H18.6601L13.9876 121.244H12.5299L7.75759 113.546H8.4365V122.694H5.40137Z" fill="#FAFAFA"/>
<path d="M29.8439 114.506H36.5731V116.974H29.8439V114.506ZM30.0835 120.147H37.6913V122.694H26.8687V108.982H37.4317V111.528H30.0835V120.147Z" fill="#FAFAFA"/>
<path d="M41.7627 122.694V120.637L50.4088 110.412L50.8082 111.567H41.9224V108.982H53.6836V111.039L45.0574 121.264L44.6581 120.108H53.9831V122.694H41.7627Z" fill="#FAFAFA"/>
<path d="M73.2942 122.929C72.1894 122.929 71.1642 122.753 70.2191 122.4C69.2872 122.048 68.4753 121.551 67.783 120.911C67.1041 120.271 66.5715 119.521 66.1856 118.659C65.8127 117.797 65.6265 116.857 65.6265 115.838C65.6265 114.819 65.8127 113.879 66.1856 113.017C66.5715 112.155 67.1106 111.404 67.803 110.764C68.4953 110.124 69.3071 109.628 70.2391 109.276C71.171 108.923 72.1825 108.747 73.2742 108.747C74.379 108.747 75.3908 108.923 76.3093 109.276C77.2413 109.628 78.0466 110.124 78.7255 110.764C79.4178 111.404 79.9569 112.155 80.3429 113.017C80.7288 113.866 80.9219 114.806 80.9219 115.838C80.9219 116.857 80.7288 117.803 80.3429 118.678C79.9569 119.54 79.4178 120.291 78.7255 120.931C78.0466 121.558 77.2413 122.048 76.3093 122.4C75.3908 122.753 74.3859 122.929 73.2942 122.929ZM73.2742 120.226C73.8998 120.226 74.4723 120.121 74.9915 119.912C75.524 119.703 75.9899 119.403 76.3892 119.011C76.7886 118.62 77.0946 118.156 77.3077 117.62C77.5339 117.085 77.6472 116.491 77.6472 115.838C77.6472 115.185 77.5339 114.591 77.3077 114.055C77.0946 113.52 76.7886 113.056 76.3892 112.664C76.0033 112.273 75.544 111.972 75.0114 111.763C74.4788 111.554 73.8998 111.45 73.2742 111.45C72.6486 111.45 72.0696 111.554 71.537 111.763C71.0178 111.972 70.5586 112.273 70.1592 112.664C69.7598 113.056 69.4469 113.52 69.2207 114.055C69.0076 114.591 68.9012 115.185 68.9012 115.838C68.9012 116.478 69.0076 117.072 69.2207 117.62C69.4469 118.156 69.7533 118.62 70.1392 119.011C70.5386 119.403 71.0044 119.703 71.537 119.912C72.0696 120.121 72.6486 120.226 73.2742 120.226Z" fill="#FAFAFA"/>
<path d="M85.749 122.694V108.982H91.7993C93.0508 108.982 94.129 109.184 95.0341 109.589C95.9392 109.981 96.6381 110.549 97.1308 111.293C97.6234 112.038 97.8696 112.925 97.8696 113.957C97.8696 114.976 97.6234 115.857 97.1308 116.602C96.6381 117.346 95.9392 117.921 95.0341 118.326C94.129 118.717 93.0508 118.913 91.7993 118.913H87.5461L88.9838 117.483V122.694H85.749ZM88.9838 117.836L87.5461 116.328H91.6196C92.618 116.328 93.3634 116.118 93.856 115.701C94.3487 115.283 94.5948 114.702 94.5948 113.957C94.5948 113.2 94.3487 112.612 93.856 112.194C93.3634 111.776 92.618 111.567 91.6196 111.567H87.5461L88.9838 110.059V117.836Z" fill="#FAFAFA"/>
<path d="M107.363 122.929C106.245 122.929 105.173 122.786 104.148 122.498C103.123 122.198 102.297 121.813 101.672 121.342L102.77 118.953C103.369 119.37 104.075 119.717 104.887 119.991C105.712 120.252 106.544 120.383 107.383 120.383C108.022 120.383 108.534 120.324 108.92 120.206C109.32 120.076 109.613 119.899 109.799 119.677C109.985 119.455 110.078 119.201 110.078 118.913C110.078 118.548 109.932 118.26 109.639 118.051C109.346 117.83 108.96 117.653 108.481 117.523C108.002 117.379 107.469 117.248 106.884 117.131C106.311 117 105.732 116.843 105.146 116.661C104.574 116.478 104.048 116.243 103.569 115.955C103.09 115.668 102.697 115.289 102.391 114.819C102.098 114.349 101.951 113.748 101.951 113.017C101.951 112.234 102.165 111.522 102.59 110.882C103.03 110.229 103.682 109.713 104.547 109.334C105.426 108.943 106.524 108.747 107.842 108.747C108.721 108.747 109.586 108.851 110.438 109.06C111.29 109.256 112.042 109.556 112.694 109.961L111.696 112.371C111.043 112.005 110.391 111.737 109.739 111.568C109.087 111.385 108.448 111.293 107.822 111.293C107.196 111.293 106.684 111.365 106.284 111.509C105.885 111.652 105.599 111.842 105.426 112.077C105.253 112.299 105.166 112.56 105.166 112.86C105.166 113.213 105.313 113.5 105.606 113.722C105.899 113.931 106.284 114.101 106.764 114.232C107.243 114.362 107.769 114.493 108.341 114.623C108.927 114.754 109.506 114.904 110.078 115.074C110.664 115.244 111.197 115.472 111.676 115.76C112.155 116.047 112.541 116.426 112.834 116.896C113.14 117.366 113.293 117.96 113.293 118.678C113.293 119.449 113.074 120.154 112.634 120.794C112.195 121.434 111.536 121.95 110.657 122.341C109.792 122.733 108.694 122.929 107.363 122.929Z" fill="#FAFAFA"/>
<path d="M56.3386 1.22431C57.2992 -0.408098 59.701 -0.408108 60.6616 1.22431L116.458 96.0317C117.419 97.664 116.218 99.7046 114.296 99.7046H2.70383C0.782413 99.7046 -0.418488 97.664 0.542226 96.0317L56.3386 1.22431Z" fill="#FAFAFA"/>
<path d="M40.5713 33.6685C41.0518 32.8522 42.2527 32.8522 42.7328 33.6685L78.8047 94.9604C79.2849 95.7768 78.6846 96.7969 77.7239 96.7969H5.58045C4.61974 96.7969 4.01927 95.7768 4.49962 94.9604L40.5713 33.6685Z" fill="url(#paint0_linear_494_786)"/>
<path d="M74.267 33.6685C74.7475 32.8522 75.9484 32.8522 76.4286 33.6685L112.5 94.9604C112.981 95.7767 112.38 96.7969 111.42 96.7969H39.2762C38.3156 96.7969 37.715 95.7767 38.1955 94.9604L74.267 33.6685Z" fill="url(#paint1_linear_494_786)"/>
</g>
<defs>
<linearGradient id="paint0_linear_494_786" x1="41.5514" y1="51.7895" x2="41.5514" y2="110.053" gradientUnits="userSpaceOnUse">
<stop stop-color="#070728" stop-opacity="0.85"/>
<stop offset="1" stop-color="#3CEAEA" stop-opacity="0.6"/>
</linearGradient>
<linearGradient id="paint1_linear_494_786" x1="75.4485" y1="52.8685" x2="75.4485" y2="109.513" gradientUnits="userSpaceOnUse">
<stop stop-color="#070728" stop-opacity="0.85"/>
<stop offset="1" stop-color="#3CEAEA" stop-opacity="0.6"/>
</linearGradient>
<clipPath id="clip0_494_786">
<rect width="117" height="123" fill="white"/>
</clipPath>
</defs>
</svg>
